<svg width="160" height="45" viewBox="0 0 160 45" fill="none" xmlns="http://www.w3.org/2000/svg">
<path fill-rule="evenodd" clip-rule="evenodd" d="M14.1411 7.81967C13.7749 6.60835 12.6558 5.7793 11.3871 5.7793C9.15456 5.7793 5.60387 5.7793 2.87634 5.7793C1.96659 5.7793 1.11034 6.20859 0.567595 6.9367C0.0251387 7.66481 -0.140244 8.60599 0.122355 9.47434C2.24875 16.5091 6.81361 31.6116 8.47002 37.0924C8.83617 38.3037 9.95531 39.1327 11.224 39.1327C13.4568 39.1327 17.0072 39.1327 19.7348 39.1327C20.6445 39.1327 21.5008 38.7034 22.0435 37.9753C22.5863 37.2472 22.7513 36.306 22.4887 35.4374C20.3624 28.4029 15.7975 13.3001 14.1411 7.81967Z" fill="#ED1D25"/>
<path fill-rule="evenodd" clip-rule="evenodd" d="M31.637 7.81967C31.2709 6.60835 30.1521 5.7793 28.8831 5.7793C26.6505 5.7793 23.0998 5.7793 20.3723 5.7793C19.4626 5.7793 18.6063 6.20859 18.0636 6.9367C17.5211 7.66481 17.356 8.60599 17.6183 9.47434C19.3093 15.0689 22.4627 25.5017 23.7927 29.9013C24.1586 31.1126 25.2777 31.9417 26.5464 31.9417C28.7792 31.9417 32.3296 31.9417 35.0572 31.9417C35.9672 31.9417 36.8232 31.5124 37.3659 30.7843C37.9087 30.0562 38.0738 29.115 37.8112 28.2463C36.1202 22.652 32.9667 12.219 31.637 7.81967Z" fill="#ED1D25"/>
<path fill-rule="evenodd" clip-rule="evenodd" d="M49.2932 7.81967C48.9271 6.60835 47.8082 5.7793 46.5392 5.7793C44.3067 5.7793 40.7563 5.7793 38.0285 5.7793C37.1187 5.7793 36.2625 6.20859 35.72 6.9367C35.1773 7.66481 35.0122 8.60599 35.2748 9.47434C36.2932 12.8439 37.7604 17.6986 38.5818 20.4158C38.9477 21.6271 40.0668 22.4559 41.3355 22.4559C43.5684 22.4559 47.1188 22.4559 49.8463 22.4559C50.7563 22.4559 51.6123 22.0269 52.155 21.2987C52.6978 20.5706 52.8629 19.6295 52.6003 18.7608C51.5818 15.3913 50.1144 10.5365 49.2932 7.81967Z" fill="#ED1D25"/>
<path d="M155.767 8.1384C156.592 6.27494 158.268 5.58984 160 5.58984V8.7961C158.049 8.65908 155.767 9.5634 155.767 12.6326V19.5384H152.799V5.83648H155.767V8.1384Z" fill="white"/>
<path d="M139.137 13.9483C139.604 16.0858 141.336 17.1819 143.535 17.1819C145.184 17.1819 146.421 16.442 147.08 15.4829L149.527 16.9079C148.262 18.7713 146.201 19.8949 143.507 19.8949C138.972 19.8949 136.031 16.7983 136.031 12.6877C136.031 8.63191 138.972 5.48047 143.287 5.48047C147.383 5.48047 150.186 8.76893 150.186 12.7151C150.186 13.1261 150.131 13.5646 150.076 13.9483H139.137ZM139.11 11.5367H147.19C146.778 9.17999 145.046 8.16605 143.26 8.16605C141.034 8.16605 139.522 9.48143 139.11 11.5367Z" fill="white"/>
<path d="M131.87 3.78173C130.826 3.78173 129.974 2.90481 129.974 1.89087C129.974 0.849521 130.826 0 131.87 0C132.915 0 133.767 0.849521 133.767 1.89087C133.767 2.90481 132.915 3.78173 131.87 3.78173ZM130.386 19.539V5.83703H133.354V19.539H130.386Z" fill="white"/>
<path d="M122.015 5.48047C125.121 5.48047 127.209 7.61797 127.209 11.0435V19.5387H124.241V11.2353C124.241 9.31701 123.197 8.24826 121.575 8.24826C119.816 8.24826 118.579 9.37182 118.579 11.8656V19.5387H115.611V11.2353C115.611 9.31701 114.649 8.24826 113.027 8.24826C111.35 8.24826 109.976 9.37182 109.976 11.8656V19.5387H107.008V5.83672H109.976V7.48095C110.856 6.13816 112.203 5.48047 113.907 5.48047C115.693 5.48047 117.012 6.27518 117.81 7.64537C118.717 6.22037 120.173 5.48047 122.015 5.48047Z" fill="white"/>
<path d="M93.3461 13.9483C93.8133 16.0858 95.5449 17.1819 97.7437 17.1819C99.3928 17.1819 100.63 16.442 101.289 15.4829L103.736 16.9079C102.471 18.7713 100.41 19.8949 97.7162 19.8949C93.1812 19.8949 90.2402 16.7983 90.2402 12.6877C90.2402 8.63191 93.1812 5.48047 97.4963 5.48047C101.592 5.48047 104.395 8.76893 104.395 12.7151C104.395 13.1261 104.34 13.5646 104.285 13.9483H93.3461ZM93.3186 11.5367H101.399C100.987 9.17999 99.2554 8.16605 97.4689 8.16605C95.2426 8.16605 93.7309 9.48143 93.3186 11.5367Z" fill="white"/>
<path d="M85.2292 8.1384C86.0537 6.27494 87.7303 5.58984 89.4619 5.58984V8.7961C87.5104 8.65908 85.2292 9.5634 85.2292 12.6326V19.5384H82.2607V5.83648H85.2292V8.1384Z" fill="white"/>
<path d="M72.7266 5.48047C76.4646 5.48047 79.5704 8.63191 79.5704 12.6877C79.5704 16.7709 76.4646 19.8949 72.7266 19.8949C70.5827 19.8949 68.9611 19.018 67.9167 17.593V25.0194H64.9482V5.83672H67.9167V7.8098C68.9611 6.35739 70.5827 5.48047 72.7266 5.48047ZM72.2593 17.0723C74.733 17.0723 76.602 15.2362 76.602 12.6877C76.602 10.1391 74.733 8.30307 72.2593 8.30307C69.7857 8.30307 67.9167 10.1391 67.9167 12.6877C67.9167 15.2362 69.7857 17.0723 72.2593 17.0723Z" fill="white"/>
<path d="M152.031 35.1806C152.031 37.5636 159.096 36.1233 159.096 40.9677C159.096 43.5863 156.811 45.0004 153.975 45.0004C151.349 45.0004 149.458 43.822 148.617 41.9366L151.06 40.5226C151.48 41.7009 152.53 42.408 153.975 42.408C155.236 42.408 156.207 41.989 156.207 40.9415C156.207 38.611 149.142 39.9203 149.142 35.233C149.142 32.7715 151.27 31.2266 153.949 31.2266C156.102 31.2266 157.888 32.2216 158.808 33.9499L156.418 35.2854C155.945 34.2641 155.026 33.7928 153.949 33.7928C152.924 33.7928 152.031 34.2379 152.031 35.1806Z" fill="white"/>
<path d="M147.398 34.2898H144.141V40.5744C144.141 42.2503 145.244 42.2241 147.398 42.1193V44.6594C143.038 45.1831 141.305 43.9785 141.305 40.5744V34.2898H138.889V31.5664H141.305V28.7383L144.141 27.9004V31.5664H147.398V34.2898Z" fill="white"/>
<path d="M127.429 39.318C127.875 41.3605 129.53 42.408 131.631 42.408C133.207 42.408 134.389 41.7009 135.019 40.7844L137.356 42.1461C136.148 43.9267 134.179 45.0004 131.605 45.0004C127.271 45.0004 124.461 42.0413 124.461 38.1135C124.461 34.2379 127.271 31.2266 131.395 31.2266C135.308 31.2266 137.987 34.3689 137.987 38.1396C137.987 38.5324 137.934 38.9514 137.882 39.318H127.429ZM127.402 37.0136H135.124C134.73 34.7617 133.075 33.7928 131.368 33.7928C129.241 33.7928 127.796 35.0497 127.402 37.0136Z" fill="white"/>
<path d="M124.339 44.6602H120.951L115.567 38.6113V44.6602H112.73V26.3301H115.567V37.3544L120.662 31.5673H124.129L118.351 37.9828L124.339 44.6602Z" fill="white"/>
<path d="M106.59 33.7654C107.378 31.9847 108.98 31.3301 110.635 31.3301V34.3938C108.77 34.2629 106.59 35.127 106.59 38.0599V44.6587H103.754V31.5658H106.59V33.7654Z" fill="white"/>
<path d="M97.6114 31.567H100.448V44.6599H97.6114V42.7746C96.6134 44.1624 95.0638 45.0004 93.0153 45.0004C89.4434 45.0004 86.4756 41.989 86.4756 38.1135C86.4756 34.2118 89.4434 31.2266 93.0153 31.2266C95.0638 31.2266 96.6134 32.0645 97.6114 33.4262V31.567ZM93.4617 42.3032C95.8255 42.3032 97.6114 40.5487 97.6114 38.1135C97.6114 35.6782 95.8255 33.9237 93.4617 33.9237C91.098 33.9237 89.3121 35.6782 89.3121 38.1135C89.3121 40.5487 91.098 42.3032 93.4617 42.3032Z" fill="white"/>
<path d="M79.2111 31.2266C82.1789 31.2266 84.1749 33.2691 84.1749 36.5423V44.6599H81.3384V36.7256C81.3384 34.8926 80.3404 33.8713 78.7909 33.8713C77.11 33.8713 75.9281 34.945 75.9281 37.3279V44.6599H73.0916V36.7256C73.0916 34.8926 72.1724 33.8713 70.6228 33.8713C69.0208 33.8713 67.7076 34.945 67.7076 37.3279V44.6599H64.8711V31.567H67.7076V33.1381C68.548 31.855 69.8349 31.2266 71.4633 31.2266C73.1704 31.2266 74.4311 31.986 75.1927 33.2952C76.0594 31.9336 77.4514 31.2266 79.2111 31.2266Z" fill="white"/>
</svg>
