<svg width="51" height="52" viewBox="0 0 51 52" fill="none" xmlns="http://www.w3.org/2000/svg">
<g filter="url(#filter0_d_3787_43488)">
<path d="M25.4326 11.6768C26.8702 11.6768 27.895 11.9527 28.7119 12.3652C29.5364 12.7815 30.178 13.3505 30.8457 13.9893C32.1832 15.2688 33.5761 16.7904 36.5449 17.3184C37.6055 17.5079 38.4281 18.6026 38.3623 19.8662V19.8672C38.0763 25.3776 36.916 29.3838 34.791 32.502C32.7011 35.5686 29.6413 37.8255 25.4326 39.8018C21.2242 37.8256 18.1651 35.5684 16.0752 32.502C13.9502 29.3838 12.79 25.3775 12.5039 19.8672V19.8662C12.4381 18.6007 13.2603 17.5065 14.3203 17.3184C17.2893 16.7904 18.6829 15.2688 20.0205 13.9893C20.6882 13.3506 21.3299 12.7815 22.1543 12.3652C22.9711 11.9529 23.9954 11.6768 25.4326 11.6768Z" fill="url(#paint0_linear_3787_43488)" stroke="url(#paint1_linear_3787_43488)"/>
<path d="M24.083 31.6029C23.7374 31.6029 23.3918 31.4599 23.1285 31.1754L19.0785 26.7985C18.5507 26.228 18.5507 25.3059 19.0785 24.7355C19.6064 24.165 20.4596 24.165 20.9874 24.7355L24.083 28.0809L29.8785 21.8175C30.4064 21.247 31.2596 21.247 31.7874 21.8175C32.3153 22.388 32.3153 23.31 31.7874 23.8805L25.0374 31.1754C24.7742 31.4599 24.4286 31.6029 24.083 31.6029Z" fill="white"/>
</g>
<path d="M13 0.5H37.46C44.3634 0.500194 49.96 6.09656 49.96 13V38.5332C49.96 45.4366 44.3634 51.033 37.46 51.0332H13C6.09644 51.0332 0.5 45.4368 0.5 38.5332V13L0.503906 12.6777C0.674841 5.92311 6.20419 0.500001 13 0.5Z" fill="#FF0000" fill-opacity="0.1" stroke="#FFDADA"/>
<defs>
<filter id="filter0_d_3787_43488" x="8" y="11.1768" width="34.8652" height="37.1797" filterUnits="userSpaceOnUse" color-interpolation-filters="sRGB">
<feFlood flood-opacity="0" result="BackgroundImageFix"/>
<feColorMatrix in="SourceAlpha" type="matrix" values="0 0 0 0 0 0 0 0 0 0 0 0 0 0 0 0 0 0 127 0" result="hardAlpha"/>
<feOffset dy="4"/>
<feGaussianBlur stdDeviation="2"/>
<feComposite in2="hardAlpha" operator="out"/>
<feColorMatrix type="matrix" values="0 0 0 0 0 0 0 0 0 0 0 0 0 0 0 0 0 0 0.25 0"/>
<feBlend mode="normal" in2="BackgroundImageFix" result="effect1_dropShadow_3787_43488"/>
<feBlend mode="normal" in="SourceGraphic" in2="effect1_dropShadow_3787_43488" result="shape"/>
</filter>
<linearGradient id="paint0_linear_3787_43488" x1="21" y1="6.85384" x2="32.9816" y2="34.3062" gradientUnits="userSpaceOnUse">
<stop stop-color="#390000"/>
<stop offset="1" stop-color="#FF000A"/>
</linearGradient>
<linearGradient id="paint1_linear_3787_43488" x1="16" y1="16.04" x2="33.6897" y2="39.0579" gradientUnits="userSpaceOnUse">
<stop stop-color="white"/>
<stop offset="1" stop-color="white"/>
</linearGradient>
</defs>
</svg>
